{"title":"The Frankenstein Theory 2013 BDRip x264 AC3-MiLLENiUM","uid":10165746,"size":1426006186,"categoryP":"video","categoryS":"movies","magnet":"?xt=urn:btih:9a44a19c16169b5eca17f5540d2edefde19d3f0b&amp;dn=The+Frankenstein+Theory+2013+BDRip+x264+AC3-MiLLENiUM&amp;tr=udp%3A%2F%2Ftracker.openbittorrent.com%3A80&amp;tr=udp%3A%2F%2Fopen.demonii.com%3A1337&amp;tr=udp%3A%2F%2Ftracker.coppersurfer.tk%3A6969&amp;tr=udp%3A%2F%2Fexodus.desync.com%3A6969","seeders":1,"leechers":0,"uploader":"Xetron","files":4,"time":1400343310,"description":" &lt;a href=&quot;http://s18.postimg.org/ndgfpvtux/xiqrkso6.jpg&quot; rel=&quot;nofollow&quot; target=&quot;_NEW&quot;&gt;http://s18.postimg.org/ndgfpvtux/xiqrkso6.jpg&lt;/a&gt;\n\nThe Frankenstein Theory 2013 BDRip x264 AC3-MiLLENiUM General\nSource: COMPLETE BLURAY-TRexHD [THANKS]\nIMDb Information: http://www.imdb.com/title/tt2646378/\nSample Included: yes\n\nGeneral\nComplete name: The Frankenstein Theory 2013 BDRip x264 AC3-MiLLENiUM.mkv\nFormat: Matroska\nFormat version: Version 2\nFile size: 1.31 GiB\nDuration: 1h 26mn\nOverall bit rate mode: Variable\nOverall bit rate: 2 156 Kbps\nEncoded date: UTC 2014-05-17 13:42:53\nWriting application: mkvmerge v6.9.1 ('Blue Panther') 32bit built on Apr 18 2014 18:15:44\nWriting library: libebml v1.3.0 + libmatroska v1.4.1\n\nVideo\nID: 1\nFormat: AVC\nFormat/Info: Advanced Video Codec\nFormat profile: &lt;a class=&quot;__cf_email__&quot; href=&quot;/cdn-cgi/l/email-protection&quot; data-cfemail=&quot;1b53727c735b572f352a&quot;&gt;[email&amp;#160;protected]&lt;/a&gt;&lt;script cf-hash='f9e31' type=&quot;text/javascript&quot;&gt;\n/* &lt;![CDATA[ */!function(){try{var t=&quot;currentScript&quot;in document?document.currentScript:function(){for(var t=document.getElementsByTagName(&quot;script&quot;),e=t.length;e--;)if(t[e].getAttribute(&quot;cf-hash&quot;))return t[e]}();if(t&amp;&amp;t.previousSibling){var e,r,n,i,c=t.previousSibling,a=c.getAttribute(&quot;data-cfemail&quot;);if(a){for(e=&quot;&quot;,r=parseInt(a.substr(0,2),16),n=2;a.length-n;n+=2)i=parseInt(a.substr(n,2),16)^r,e+=String.fromCharCode(i);e=document.createTextNode(e),c.parentNode.replaceChild(e,c)}}}catch(u){}}();/* ]]&gt; */&lt;/script&gt;\nFormat settings, CABAC: Yes\nFormat settings, ReFrames: 3 frames\nCodec ID: V_MPEG4/ISO/AVC\nDuration: 1h 26mn\nBit rate mode: Variable\nBit rate: 1 665 Kbps\nMaximum bit rate: 40.0 Mbps\nWidth: 720 pixels\nHeight: 400 pixels\nDisplay aspect ratio: 16:9\nFrame rate mode: Constant\nFrame rate: 23.976 fps\nColor space: YUV\nChroma subsampling: 4:2:0\nBit depth: 8 bits\nScan type: Progressive\nBits/(Pixel*Frame): 0.241\nStream size: 1.01 GiB (77%)\nWriting library: x264 core 142 r2409 d6b4e63\n\nAudio\nID: 2\nFormat: AC-3\nFormat/Info: Audio Coding 3\nMode extension: CM (complete main)\nFormat settings, Endianness: Big\nCodec ID: A_AC3\nDuration: 1h 26mn\nBit rate mode: Constant\nBit rate: 448 Kbps\nChannel(s): 6 channels\nChannel positions: Front: L C R, Side: L R, LFE\nSampling rate: 48.0 KHz\nBit depth: 16 bits\nCompression mode: Lossy\nStream size: 278 MiB (21%)\nLanguage: English\nDefault: Yes\nForced: No Plot\nFrom the makers of The Last Exorcism comes a boldly original vision of horror. What if the most chilling novel of all time was actually based on a true account of a horrific experiment gone awry? When he is suspended from his university job for his outlandish ideas, Professor John Venkenheim leads a documentary film crew to the rim of the Arctic Circle in a desperate effort to vindicate his academic reputation \n &lt;a href=&quot;\nhttp://s28.postimg.org/6ula5j5n1/The_Frankenstein_Theory_2013_BDRip_x264_AC3_Mi_LL.jpg&quot; rel=&quot;nofollow&quot; target=&quot;_NEW&quot;&gt;\nhttp://s28.postimg.org/6ula5j5n1/The_Frankenstein_Theory_2013_BDRip_x264_AC3_Mi_LL.jpg&lt;/a&gt;\n &lt;a href=&quot;\nhttp://s28.postimg.org/5r15tkkzx/The_Frankenstein_Theory_2013_BDRip_x264_AC3_Mi_LL.jpg&quot; rel=&quot;nofollow&quot; target=&quot;_NEW&quot;&gt;\nhttp://s28.postimg.org/5r15tkkzx/The_Frankenstein_Theory_2013_BDRip_x264_AC3_Mi_LL.jpg&lt;/a&gt; &lt;a href=&quot;\nhttp://s28.postimg.org/gcl15krbh/The_Frankenstein_Theory_2013_BDRip_x264_AC3_Mi_LL.jpg&quot; rel=&quot;nofollow&quot; target=&quot;_NEW&quot;&gt;\nhttp://s28.postimg.org/gcl15krbh/The_Frankenstein_Theory_2013_BDRip_x264_AC3_Mi_LL.jpg&lt;/a&gt; &lt;a href=&quot;\nhttp://s28.postimg.org/azw6rg3f1/The_Frankenstein_Theory_2013_BDRip_x264_AC3_Mi_LL.jpg&quot; rel=&quot;nofollow&quot; target=&quot;_NEW&quot;&gt;\nhttp://s28.postimg.org/azw6rg3f1/The_Frankenstein_Theory_2013_BDRip_x264_AC3_Mi_LL.jpg&lt;/a&gt;","torrent":{"xt":"urn:btih:9a44a19c16169b5eca17f5540d2edefde19d3f0b","amp;dn":"The+Frankenstein+Theory+2013+BDRip+x264+AC3-MiLLENiUM","amp;tr":["udp%3A%2F%2Ftracker.openbittorrent.com%3A80","udp%3A%2F%2Fopen.demonii.com%3A1337","udp%3A%2F%2Ftracker.coppersurfer.tk%3A6969","udp%3A%2F%2Fexodus.desync.com%3A6969"],"infoHash":"9a44a19c16169b5eca17f5540d2edefde19d3f0b","infoHashBuffer":{"type":"Buffer","data":[154,68,161,156,22,22,155,94,202,23,245,84,13,46,222,253,225,157,63,11]},"announce":[],"urlList":[]}}